<svg width="32" height="40" viewBox="0 0 32 40" fill="none" xmlns="http://www.w3.org/2000/svg">
<path d="M17.8744 39.1013C21.9317 34.0727 31.1851 21.8848 31.1851 15.039C31.1851 6.73625 24.3834 0 16 0C7.61654 0 0.814819 6.73625 0.814819 15.039C0.814819 21.8848 10.0683 34.0726 14.1255 39.1013C15.0983 40.2997 16.9016 40.2997 17.8744 39.1013ZM16 10.0261C17.3424 10.0261 18.6299 10.5543 19.5791 11.4943C20.5284 12.4345 21.0618 13.7095 21.0618 15.0391C21.0618 16.3686 20.5284 17.6437 19.5791 18.5838C18.6299 19.5239 17.3424 20.052 16 20.052C14.6576 20.052 13.3701 19.5238 12.4208 18.5838C11.4715 17.6436 10.9383 16.3685 10.9383 15.0391C10.9383 13.7096 11.4716 12.4345 12.4208 11.4943C13.3701 10.5541 14.6576 10.0261 16 10.0261Z" fill="#C09A76"/>
</svg>
