<svg width="40" height="40" viewBox="0 0 40 40" fill="none" xmlns="http://www.w3.org/2000/svg">
<path d="M39.8954 15.3422C39.632 14.5323 38.9136 13.9588 38.0671 13.8822L26.5202 12.8339L21.9569 2.15017C21.62 1.36524 20.8533 0.858643 20.0001 0.858643C19.1468 0.858643 18.3798 1.36524 18.0451 2.15017L13.4817 12.8339L1.93304 13.8822C1.08647 13.9604 0.369598 14.5338 0.104701 15.3422C-0.15867 16.1522 0.0845593 17.0406 0.724829 17.6021L9.45331 25.2557L6.87972 36.5907C6.69142 37.4242 7.01491 38.286 7.70645 38.7859C8.07816 39.056 8.51488 39.1909 8.95312 39.1909C9.32971 39.1909 9.70661 39.0908 10.0432 38.8894L20.0001 32.9359L29.9551 38.8894C30.6854 39.3258 31.6036 39.2858 32.2937 38.7859C32.9852 38.286 33.3087 37.4242 33.1204 36.5907L30.5468 25.2557L39.2753 17.6021C39.9152 17.0406 40.1588 16.154 39.8954 15.3422Z" fill="#C09A76"/>
</svg>
