<?xml version="1.0" standalone="no"?>
<!DOCTYPE svg PUBLIC "-//W3C//DTD SVG 20010904//EN"
 "http://www.w3.org/TR/2001/REC-SVG-20010904/DTD/svg10.dtd">
<svg version="1.0" xmlns="http://www.w3.org/2000/svg"
 width="362.000000pt" height="362.000000pt" viewBox="0 0 362.000000 362.000000"
 preserveAspectRatio="xMidYMid meet">
<metadata>
Created by potrace 1.14, written by Peter Selinger 2001-2017
</metadata>
<g transform="translate(0.000000,362.000000) scale(0.100000,-0.100000)"
fill="#000000" stroke="none">
<path d="M2320 3236 c-89 -20 -130 -35 -229 -87 -118 -62 -236 -145 -322 -230
-50 -49 -70 -64 -79 -55 -7 7 -58 11 -143 11 -118 -1 -140 -4 -212 -28 -225
-79 -393 -203 -540 -398 -84 -111 -122 -186 -161 -314 -25 -81 -28 -106 -28
-240 -1 -170 14 -250 69 -371 88 -194 194 -293 378 -353 51 -17 68 -28 72 -44
2 -12 11 -60 20 -107 56 -294 164 -526 290 -623 67 -50 175 -103 255 -123 87
-22 274 -14 380 16 140 40 380 185 380 230 0 11 -2 20 -5 20 -2 0 -39 -23 -82
-51 -121 -78 -229 -128 -320 -146 -74 -14 -89 -14 -167 0 -46 8 -100 23 -118
31 -55 26 -153 111 -186 162 -70 105 -114 281 -137 545 l-6 77 56 7 c84 10
149 32 250 82 114 57 162 92 256 190 103 106 139 157 277 387 3 5 -1 6 -8 1
-10 -6 -12 -4 -7 8 13 34 -2 16 -42 -53 -59 -99 -209 -297 -262 -346 -103 -94
-267 -182 -407 -218 -102 -27 -109 -25 -116 37 -8 59 8 384 25 505 13 95 59
283 95 383 47 132 130 291 234 448 l101 154 40 -39 c22 -22 52 -61 67 -89 27
-51 57 -69 68 -41 6 15 -92 148 -128 174 -10 7 -18 18 -18 24 0 15 102 140
184 226 126 131 209 178 341 193 l70 7 -76 -1 c-65 -2 -86 -7 -150 -39 -43
-21 -104 -63 -141 -98 -37 -33 -69 -57 -71 -53 -2 5 -7 29 -11 54 -6 44 -5 48
21 66 85 60 289 119 378 110 32 -4 43 -2 30 3 -28 12 -100 10 -165 -4z m-653
-404 c7 -5 0 -20 -24 -47 -177 -203 -360 -512 -436 -735 -81 -237 -112 -432
-104 -656 3 -88 9 -168 13 -177 11 -30 -28 -20 -134 33 -142 71 -223 163 -278
315 -75 206 -72 450 7 656 81 210 286 422 524 542 48 23 161 61 215 70 43 7
205 7 217 -1z"/>
<path d="M2535 3213 c17 -8 43 -27 60 -42 l30 -26 -25 28 c-24 28 -70 57 -87
57 -4 -1 6 -8 22 -17z"/>
<path d="M2535 3170 c16 -10 38 -30 48 -42 18 -22 18 -22 8 -1 -12 24 -58 63
-75 63 -6 0 2 -9 19 -20z"/>
<path d="M2631 3120 c14 -31 19 -36 19 -24 0 6 -7 19 -16 30 -14 18 -14 18 -3
-6z"/>
<path d="M2621 3014 c0 -11 3 -14 6 -6 3 7 2 16 -1 19 -3 4 -6 -2 -5 -13z"/>
<path d="M2622 2910 c0 -14 2 -19 5 -12 2 6 2 18 0 25 -3 6 -5 1 -5 -13z"/>
</g>
</svg>
