<?xml version="1.0" encoding="UTF-8" standalone="no"?>
<!-- Created with Inkscape (http://www.inkscape.org/) -->

<svg
   version="1.1"
   id="svg2979"
   xml:space="preserve"
   width="682.66669"
   height="682.66669"
   viewBox="0 0 682.66669 682.66669"
   xmlns="http://www.w3.org/2000/svg"
   xmlns:svg="http://www.w3.org/2000/svg"><defs
     id="defs2983"><clipPath
       clipPathUnits="userSpaceOnUse"
       id="clipPath2993"><path
         d="M 0,512 H 512 V 0 H 0 Z"
         id="path2991" /></clipPath></defs><g
     id="g2985"
     transform="matrix(1.3333333,0,0,-1.3333333,0,682.66667)"><g
       id="g2987"><g
         id="g2989"
         clip-path="url(#clipPath2993)"><g
           id="g2995"
           transform="translate(225.8125,7.5)"><path
             d="M 0,0 V 37.993 H 60.375 V 0"
             style="fill:none;stroke:#000000;stroke-width:15;stroke-linecap:round;stroke-linejoin:round;stroke-miterlimit:10;stroke-dasharray:none;stroke-opacity:1"
             id="path2997" /></g><g
           id="g2999"
           transform="translate(426.9365,95.1382)"><path
             d="m 0,0 c 0,-27.418 -22.227,-49.646 -49.645,-49.646 h -242.583 c -27.418,0 -49.645,22.228 -49.645,49.646 v 274.16"
             style="fill:none;stroke:#000000;stroke-width:15;stroke-linecap:round;stroke-linejoin:round;stroke-miterlimit:10;stroke-dasharray:none;stroke-opacity:1"
             id="path3001" /></g><g
           id="g3003"
           transform="translate(85.0635,413.2109)"><path
             d="m 0,0 v 41.644 c 0,27.418 22.227,49.645 49.645,49.645 h 242.583 c 27.418,0 49.645,-22.227 49.645,-49.645 v -310.855"
             style="fill:none;stroke:#000000;stroke-width:15;stroke-linecap:round;stroke-linejoin:round;stroke-miterlimit:10;stroke-dasharray:none;stroke-opacity:1"
             id="path3005" /></g><g
           id="g3007"
           transform="translate(426.9365,144)"><path
             d="m 0,0 v 43.705 h -341.873 v -92.567 c 0,-27.418 22.227,-49.645 49.645,-49.645 H -49.645 C -22.227,-98.507 0,-76.28 0,-48.862 v 6.417"
             style="fill:none;stroke:#000000;stroke-width:15;stroke-linecap:round;stroke-linejoin:round;stroke-miterlimit:10;stroke-dasharray:none;stroke-opacity:1"
             id="path3009" /></g><g
           id="g3011"
           transform="translate(194.6396,134.2334)"><path
             d="m 0,0 c 0,-8.303 -6.731,-15.034 -15.035,-15.034 -4.117,0 -18.979,-0.067 -18.979,-0.067 V 0 15.035 h 18.979 C -6.731,15.035 0,8.304 0,0 Z"
             style="fill:none;stroke:#000000;stroke-width:15;stroke-linecap:round;stroke-linejoin:round;stroke-miterlimit:10;stroke-dasharray:none;stroke-opacity:1"
             id="path3013" /></g><g
           id="g3015"
           transform="translate(200.5068,101.5942)"><path
             d="m 0,0 c 0,-9.713 -7.874,-17.587 -17.587,-17.587 -4.817,0 -22.294,-0.078 -22.294,-0.078 V 0 17.587 h 22.294 C -7.874,17.587 0,9.713 0,0 Z"
             style="fill:none;stroke:#000000;stroke-width:15;stroke-linecap:round;stroke-linejoin:round;stroke-miterlimit:10;stroke-dasharray:none;stroke-opacity:1"
             id="path3017" /></g><g
           id="g3019"
           transform="translate(349.2148,142.5513)"><path
             d="m 0,0 c 0,0 -11.724,9.855 -25.55,5.69 -12.695,-3.824 -14.471,-18.462 -5.286,-24.45 0,0 9.012,-4.02 19.008,-7.707 24.062,-8.876 13.697,-32.155 -5.673,-32.155 -9.701,0 -17.842,4.248 -22.77,9.685"
             style="fill:none;stroke:#000000;stroke-width:15;stroke-linecap:round;stroke-linejoin:round;stroke-miterlimit:10;stroke-dasharray:none;stroke-opacity:1"
             id="path3021" /></g><g
           id="g3023"
           transform="translate(232.0249,149.2681)"><path
             d="m 0,0 v -44.96 c 0,-7.657 3.798,-12.812 10.25,-16.934 3.143,-2.008 7.111,-3.438 12.044,-3.445 4.271,-0.006 7.841,0.984 10.793,2.47 7.519,3.787 12.314,9.537 12.314,17.956 V 0"
             style="fill:none;stroke:#000000;stroke-width:15;stroke-linecap:round;stroke-linejoin:round;stroke-miterlimit:10;stroke-dasharray:none;stroke-opacity:1"
             id="path3025" /></g><g
           id="g3027"
           transform="translate(349.8149,260.3735)"><path
             d="m 0,0 h -187.63 v 170.837 c 0,17.29 14.016,31.306 31.305,31.306 h 125.02 C -14.016,202.143 0,188.127 0,170.837 Z"
             style="fill:none;stroke:#000000;stroke-width:15;stroke-linecap:butt;stroke-linejoin:round;stroke-miterlimit:10;stroke-dasharray:none;stroke-opacity:1"
             id="path3029" /></g><g
           id="g3031"
           transform="translate(162.1851,260.3735)"><path
             d="m 0,0 v -16.586 c 0,-5.726 4.641,-10.367 10.366,-10.367 h 11.591 c 5.725,0 10.366,4.641 10.366,10.367 V 0 Z"
             style="fill:none;stroke:#000000;stroke-width:15;stroke-linecap:round;stroke-linejoin:round;stroke-miterlimit:10;stroke-dasharray:none;stroke-opacity:1"
             id="path3033" /></g><g
           id="g3035"
           transform="translate(317.4922,260.3735)"><path
             d="m 0,0 v -16.586 c 0,-5.726 4.641,-10.367 10.366,-10.367 h 11.591 c 5.725,0 10.366,4.641 10.366,10.367 V 0 Z"
             style="fill:none;stroke:#000000;stroke-width:15;stroke-linecap:round;stroke-linejoin:round;stroke-miterlimit:10;stroke-dasharray:none;stroke-opacity:1"
             id="path3037" /></g><path
           d="m 349.815,335.935 h -187.63 v 95.276 h 187.63 z"
           style="fill:none;stroke:#000000;stroke-width:15;stroke-linecap:round;stroke-linejoin:round;stroke-miterlimit:10;stroke-dasharray:none;stroke-opacity:1"
           id="path3039" /><g
           id="g3041"
           transform="translate(179.3013,284.3442)"><path
             d="M 0,0 H -17.116 V 27.619 H 0 c 7.627,0 13.81,-6.182 13.81,-13.809 C 13.81,6.183 7.627,0 0,0 Z"
             style="fill:none;stroke:#000000;stroke-width:15;stroke-linecap:round;stroke-linejoin:round;stroke-miterlimit:10;stroke-dasharray:none;stroke-opacity:1"
             id="path3043" /></g><g
           id="g3045"
           transform="translate(349.8149,284.3442)"><path
             d="m 0,0 h -18.153 c -7.627,0 -13.809,6.183 -13.809,13.81 0,7.627 6.182,13.809 13.809,13.809 H 0 Z"
             style="fill:none;stroke:#000000;stroke-width:15;stroke-linecap:round;stroke-linejoin:round;stroke-miterlimit:10;stroke-dasharray:none;stroke-opacity:1"
             id="path3047" /></g><g
           id="g3049"
           transform="translate(227.1621,287.7725)"><path
             d="M 0,0 H 57.676"
             style="fill:none;stroke:#000000;stroke-width:15;stroke-linecap:round;stroke-linejoin:round;stroke-miterlimit:10;stroke-dasharray:none;stroke-opacity:1"
             id="path3051" /></g><g
           id="g3053"
           transform="translate(162.1851,363)"><path
             d="m 0,0 h -12.595 c -7.071,0 -12.802,5.732 -12.802,12.803 v 28.99 c 0,7.071 5.731,12.803 12.802,12.803 l 12.595,0 z"
             style="fill:none;stroke:#000000;stroke-width:15;stroke-linecap:round;stroke-linejoin:round;stroke-miterlimit:10;stroke-dasharray:none;stroke-opacity:1"
             id="path3055" /></g><g
           id="g3057"
           transform="translate(349.8149,417.5957)"><path
             d="m 0,0 h 12.595 c 7.071,0 12.802,-5.732 12.802,-12.803 v -28.99 c 0,-7.071 -5.731,-12.803 -12.802,-12.803 l -12.595,0 z"
             style="fill:none;stroke:#000000;stroke-width:15;stroke-linecap:round;stroke-linejoin:round;stroke-miterlimit:10;stroke-dasharray:none;stroke-opacity:1"
             id="path3059" /></g></g></g></g></svg>
