<?xml version="1.0" encoding="UTF-8" standalone="no"?>
<!-- Created with Inkscape (http://www.inkscape.org/) -->

<svg
   version="1.1"
   id="svg1659"
   xml:space="preserve"
   width="682.66669"
   height="682.66669"
   viewBox="0 0 682.66669 682.66669"
   xmlns="http://www.w3.org/2000/svg"
   xmlns:svg="http://www.w3.org/2000/svg"><defs
     id="defs1663"><clipPath
       clipPathUnits="userSpaceOnUse"
       id="clipPath1673"><path
         d="M 0,512 H 512 V 0 H 0 Z"
         id="path1671" /></clipPath></defs><g
     id="g1665"
     transform="matrix(1.3333333,0,0,-1.3333333,0,682.66667)"><g
       id="g1667"><g
         id="g1669"
         clip-path="url(#clipPath1673)"><g
           id="g1675"
           transform="translate(196,256)"><path
             d="M 0,0 V 90 H 75 C 99.85,90 120,69.85 120,45 120,20.15 99.85,0 75,0 Z"
             style="fill:none;stroke:#000000;stroke-width:20;stroke-linecap:round;stroke-linejoin:round;stroke-miterlimit:10;stroke-dasharray:none;stroke-opacity:1"
             id="path1677" /></g><g
           id="g1679"
           transform="translate(271,406)"><path
             d="m 0,0 h -135 v -300 h 60 v 90 H 0 c 57.99,0 105,47.01 105,105 C 105,-47.01 57.99,0 0,0 Z"
             style="fill:none;stroke:#000000;stroke-width:20;stroke-linecap:round;stroke-linejoin:round;stroke-miterlimit:10;stroke-dasharray:none;stroke-opacity:1"
             id="path1681" /></g><g
           id="g1683"
           transform="translate(266,10)"><path
             d="m 0,0 c 0,-5.522 -4.478,-10 -10,-10 -5.523,0 -10,4.478 -10,10 0,5.522 4.477,10 10,10 C -4.478,10 0,5.522 0,0"
             style="fill:#000000;fill-opacity:1;fill-rule:nonzero;stroke:none"
             id="path1685" /></g><g
           id="g1687"
           transform="translate(211,10)"><path
             d="m 0,0 h -171 c -16.57,0 -30,13.43 -30,30 v 432 c 0,16.57 13.43,30 30,30 h 432 c 16.57,0 30,-13.43 30,-30 V 30 C 291,13.43 277.57,0 261,0 H 90"
             style="fill:none;stroke:#000000;stroke-width:20;stroke-linecap:round;stroke-linejoin:round;stroke-miterlimit:10;stroke-dasharray:none;stroke-opacity:1"
             id="path1689" /></g></g></g></g></svg>
